<svg width="12" height="12" viewBox="0 0 12 12" fill="none" xmlns="http://www.w3.org/2000/svg">
<path d="M2.26683 0.866647C2.14742 0.866647 2.02788 0.912133 1.93688 1.00337L1.00355 1.9367C0.821083 2.11917 0.821083 2.4146 1.00355 2.5966L4.40693 5.99998L1.00355 9.40337C0.821083 9.58583 0.821083 9.88126 1.00355 10.0633L1.93688 10.9966C2.11935 11.1791 2.41478 11.1791 2.59678 10.9966L6.00016 7.59321L9.40355 10.9966C9.58555 11.1791 9.88144 11.1791 10.0634 10.9966L10.9968 10.0633C11.1792 9.88079 11.1792 9.58537 10.9968 9.40337L7.59339 5.99998L10.9968 2.5966C11.1792 2.4146 11.1792 2.1187 10.9968 1.9367L10.0634 1.00337C9.88098 0.820899 9.58555 0.820899 9.40355 1.00337L6.00016 4.40675L2.59678 1.00337C2.50555 0.912133 2.38624 0.866647 2.26683 0.866647Z" fill="white"/>
</svg>
